<?xml version="1.0" standalone="no"?>
<!DOCTYPE svg PUBLIC "-//W3C//DTD SVG 20010904//EN"
 "http://www.w3.org/TR/2001/REC-SVG-20010904/DTD/svg10.dtd">
<svg version="1.0" xmlns="http://www.w3.org/2000/svg"
 width="178.000000pt" height="178.000000pt" viewBox="0 0 178.000000 178.000000"
 preserveAspectRatio="xMidYMid meet">
<metadata>
Created by potrace 1.14, written by Peter Selinger 2001-2017
</metadata>
<g transform="translate(0.000000,178.000000) scale(0.100000,-0.100000)"
fill="#000000" stroke="none">
<path d="M60 1469 l0 -289 35 -90 c19 -49 35 -96 35 -105 0 -18 -49 -146 -61
-160 -5 -5 -9 -143 -9 -307 l0 -298 304 0 304 0 98 40 c54 22 104 40 112 40 8
0 51 -17 95 -37 l82 -38 323 -3 322 -3 0 293 0 294 -35 83 c-19 45 -35 89 -35
97 0 7 16 52 35 98 l34 84 1 293 1 294 -309 3 -310 3 -103 -41 c-115 -45 -96
-46 -232 12 l-67 29 -310 -2 -310 -1 0 -289z m518 -41 c9 -8 12 -109 12 -441
0 -386 -2 -432 -17 -449 -21 -24 -48 -23 -73 2 -19 19 -20 33 -20 449 l0 430
22 15 c22 16 51 13 76 -6z m177 -3 c14 -13 25 -31 25 -40 0 -24 -37 -18 -44 8
-6 22 -7 22 -21 2 -13 -16 -15 -77 -13 -419 3 -373 4 -401 21 -404 10 -2 17 3
17 12 0 10 9 16 21 16 18 0 20 -4 14 -27 -7 -28 -31 -52 -53 -53 -7 0 -24 11
-38 25 l-25 25 3 419 c3 396 4 420 22 440 25 27 41 27 71 -4z m123 -418 c2
-379 4 -437 17 -437 13 0 15 56 15 435 0 428 0 435 20 435 20 0 20 -7 20 -434
0 -239 -3 -442 -6 -451 -11 -27 -53 -38 -80 -20 l-24 15 0 449 c0 422 1 449
18 447 16 -3 17 -32 20 -439z m222 421 c26 -28 26 -58 0 -58 -11 0 -20 6 -20
14 0 21 -30 29 -37 10 -3 -9 11 -165 31 -348 55 -501 54 -478 21 -504 -35 -28
-49 -28 -75 0 -26 28 -26 58 0 58 11 0 20 -7 20 -15 0 -20 29 -19 37 1 3 9 -8
141 -25 293 -63 556 -62 538 -20 559 34 16 45 14 68 -10z m163 -9 c-3 -12 -14
-19 -29 -19 l-24 0 0 -195 c0 -163 2 -195 14 -195 8 0 17 -4 20 -9 10 -15 -6
-43 -20 -37 -12 4 -14 -22 -14 -149 l0 -155 25 0 c18 0 25 -5 25 -20 0 -17 -7
-20 -45 -20 l-45 0 0 409 c0 455 -5 421 66 413 25 -3 31 -8 27 -23z m139 -4
c4 -5 8 -178 8 -384 0 -421 2 -411 -72 -411 l-38 0 0 409 0 410 33 3 c31 3 54
-6 69 -27z m-954 8 c-2 -11 -14 -19 -31 -21 l-27 -3 0 -193 c0 -185 1 -194 20
-199 11 -3 20 -12 20 -20 0 -8 -9 -17 -20 -20 -19 -5 -20 -14 -20 -220 0 -175
-3 -216 -14 -220 -8 -3 -17 -3 -20 0 -3 4 -6 210 -6 460 l0 453 51 0 c43 0 50
-3 47 -17z m962 -878 l0 -25 -120 0 -120 0 0 25 0 25 120 0 120 0 0 -25z"/>
<path d="M522 985 c2 -266 7 -416 13 -418 7 -1 11 143 13 416 2 368 0 417 -13
417 -13 0 -15 -49 -13 -415z"/>
<path d="M1340 1030 c0 -322 2 -370 15 -370 13 0 15 48 15 370 0 322 -2 370
-15 370 -13 0 -15 -48 -15 -370z"/>
<path d="M640 79 c0 -5 4 -9 9 -9 5 0 11 -12 13 -27 3 -28 4 -28 9 4 4 25 1
33 -13 36 -10 3 -18 1 -18 -4z"/>
<path d="M70 50 c0 -32 19 -40 39 -16 15 18 3 46 -20 46 -14 0 -19 -7 -19 -30z
m33 14 c8 -8 -3 -34 -14 -34 -5 0 -9 9 -9 20 0 19 11 26 23 14z"/>
<path d="M132 50 c0 -19 2 -27 5 -17 2 9 2 25 0 35 -3 9 -5 1 -5 -18z"/>
<path d="M164 65 c-10 -24 4 -45 28 -44 l23 2 -22 4 c-31 6 -31 40 0 46 l22 4
-23 2 c-12 0 -25 -6 -28 -14z"/>
<path d="M232 50 c0 -19 2 -27 5 -17 2 9 2 25 0 35 -3 9 -5 1 -5 -18z"/>
<path d="M269 48 c5 -30 6 -31 9 -8 2 14 9 28 16 32 7 5 3 8 -10 8 -18 0 -20
-5 -15 -32z"/>
<path d="M371 53 c-1 -28 2 -33 22 -32 15 1 17 3 5 6 -9 2 -19 16 -21 31 -4
24 -4 24 -6 -5z"/>
<path d="M440 50 c0 -30 0 -30 25 -14 30 19 28 38 -3 42 -19 3 -22 -1 -22 -28z
m40 10 c0 -5 -7 -10 -15 -10 -8 0 -15 5 -15 10 0 6 7 10 15 10 8 0 15 -4 15
-10z"/>
<path d="M501 52 c-1 -28 1 -31 13 -20 8 7 10 15 6 18 -4 3 -10 12 -13 20 -3
8 -6 0 -6 -18z"/>
<path d="M542 50 c0 -19 2 -27 5 -17 2 9 2 25 0 35 -3 9 -5 1 -5 -18z"/>
<path d="M574 66 c-10 -26 4 -48 28 -44 33 4 33 52 0 56 -13 2 -25 -3 -28 -12z
m46 -16 c0 -13 -7 -20 -20 -20 -13 0 -20 7 -20 20 0 13 7 20 20 20 13 0 20 -7
20 -20z"/>
<path d="M696 64 c-9 -22 12 -46 38 -42 15 2 21 10 21 28 0 20 -6 26 -26 28
-18 2 -29 -3 -33 -14z m49 -14 c0 -8 -8 -16 -17 -18 -13 -2 -18 3 -18 18 0 15
5 20 18 18 9 -2 17 -10 17 -18z"/>
<path d="M774 65 c-10 -25 4 -47 28 -43 22 3 39 28 18 28 -6 0 -8 -5 -4 -11 4
-7 -1 -10 -11 -7 -28 5 -29 27 -3 37 l23 10 -23 0 c-12 1 -25 -6 -28 -14z"/>
<path d="M842 53 c1 -21 6 -28 22 -29 17 -1 22 4 21 21 0 13 -4 27 -9 32 -5 5
-6 0 -3 -10 5 -13 3 -17 -5 -14 -7 2 -12 10 -10 16 1 6 -2 11 -7 11 -5 0 -9
-12 -9 -27z"/>
<path d="M911 54 c-6 -15 -9 -29 -7 -32 3 -3 8 3 12 12 6 15 7 15 20 -1 17
-23 17 -5 1 25 l-13 23 -13 -27z"/>
<path d="M967 61 c-2 -10 -1 -25 4 -32 6 -10 9 -6 9 14 0 15 5 27 11 27 6 0 9
-7 5 -15 -3 -8 -1 -15 4 -15 6 0 10 9 10 20 0 26 -36 27 -43 1z"/>
<path d="M1020 49 c0 -28 2 -30 17 -18 13 11 17 11 20 2 8 -23 18 -14 19 17 1
17 -2 30 -7 30 -5 0 -9 -7 -9 -15 0 -8 -7 -15 -16 -15 -10 0 -14 6 -10 15 3 8
1 15 -4 15 -6 0 -10 -14 -10 -31z"/>
<path d="M1103 51 l11 -29 13 25 c17 33 16 38 -2 23 -10 -9 -15 -9 -15 -1 0 6
-4 11 -9 11 -5 0 -4 -13 2 -29z"/>
<path d="M1184 67 c3 -10 6 -24 6 -30 0 -7 7 -4 14 6 13 17 15 17 24 1 9 -16
10 -15 17 5 l7 23 12 -23 c15 -31 52 -37 61 -10 3 12 3 25 0 31 -9 15 -75 8
-84 -8 -6 -11 -9 -11 -15 4 -6 16 -8 16 -17 4 -8 -13 -10 -13 -20 0 -9 13 -10
12 -5 -3z m129 -3 c9 -9 -4 -34 -18 -34 -14 0 -27 25 -18 34 4 3 12 6 18 6 6
0 14 -3 18 -6z"/>
<path d="M1340 51 c0 -21 5 -28 18 -27 18 1 36 32 26 47 -3 5 -14 9 -25 9 -14
0 -19 -7 -19 -29z m30 9 c0 -5 -4 -10 -10 -10 -5 0 -10 5 -10 10 0 6 5 10 10
10 6 0 10 -4 10 -10z"/>
<path d="M1400 48 c0 -24 3 -29 9 -19 8 13 12 13 28 0 17 -13 17 -13 3 6 -35
47 -40 48 -40 13z"/>
<path d="M1460 71 c0 -5 7 -15 16 -22 14 -12 14 -14 -3 -20 -16 -7 -15 -8 5
-8 26 -1 30 26 5 36 -15 6 -15 7 3 14 17 7 17 8 -3 8 -13 1 -23 -3 -23 -8z"/>
<path d="M1512 50 c1 -16 5 -30 10 -30 4 0 8 5 8 10 0 14 27 12 33 -2 3 -7 6
2 6 20 1 17 -3 32 -9 32 -5 0 -9 -5 -7 -12 1 -6 -6 -14 -15 -16 -13 -2 -16 1
-12 12 3 9 1 16 -4 16 -6 0 -10 -13 -10 -30z"/>
<path d="M1584 65 c-9 -23 3 -45 25 -45 22 0 41 27 34 48 -6 17 -52 15 -59 -3z
m46 -15 c0 -21 -24 -28 -35 -10 -8 14 3 30 21 30 8 0 14 -9 14 -20z"/>
<path d="M1660 50 c0 -28 2 -29 20 -18 11 7 20 21 20 30 0 11 -8 18 -20 18
-16 0 -20 -7 -20 -30z m30 11 c0 -6 -4 -13 -10 -16 -5 -3 -10 1 -10 9 0 9 5
16 10 16 6 0 10 -4 10 -9z"/>
<path d="M312 45 c-7 -15 -8 -25 -2 -25 6 0 10 8 10 17 0 15 2 14 15 -3 15
-19 20 -8 9 20 -9 23 -19 20 -32 -9z"/>
</g>
</svg>
